<?xml version="1.0" encoding="UTF-8" standalone="no"?>
<svg
   xmlns:dc="http://purl.org/dc/elements/1.1/"
   xmlns:cc="http://creativecommons.org/ns#"
   xmlns:rdf="http://www.w3.org/1999/02/22-rdf-syntax-ns#"
   xmlns:svg="http://www.w3.org/2000/svg"
   xmlns="http://www.w3.org/2000/svg"
   xmlns:sodipodi="http://sodipodi.sourceforge.net/DTD/sodipodi-0.dtd"
   xmlns:inkscape="http://www.inkscape.org/namespaces/inkscape"
   id="Laag_2"
   data-name="Laag 2"
   viewBox="0 0 400.92 416.69"
   version="1.1"
   sodipodi:docname="icon.svg"
   inkscape:version="0.92.5 (2060ec1f9f, 2020-04-08)">
  <metadata
     id="metadata17">
    <rdf:RDF>
      <cc:Work
         rdf:about="">
        <dc:format>image/svg+xml</dc:format>
        <dc:type
           rdf:resource="http://purl.org/dc/dcmitype/StillImage" />
        <dc:title>logo</dc:title>
      </cc:Work>
    </rdf:RDF>
  </metadata>
  <sodipodi:namedview
     pagecolor="#ffffff"
     bordercolor="#666666"
     borderopacity="1"
     objecttolerance="10"
     gridtolerance="10"
     guidetolerance="10"
     inkscape:pageopacity="0"
     inkscape:pageshadow="2"
     inkscape:window-width="1920"
     inkscape:window-height="1016"
     id="namedview15"
     showgrid="false"
     inkscape:zoom="0.56636828"
     inkscape:cx="200.46001"
     inkscape:cy="208.345"
     inkscape:window-x="0"
     inkscape:window-y="27"
     inkscape:window-maximized="1"
     inkscape:current-layer="Laag_2" />
  <defs
     id="defs4">
    <style
       id="style2">.cls-1,.cls-2{fill:#f7931e;}.cls-2{font-size:73px;font-family:Orbitron-Black, Orbitron;font-weight:800;}</style>
  </defs>
  <title
     id="title6">logo</title>
  <polygon
     class="cls-1"
     points="172.29 211.79 89.25 294.83 31.17 236.75 42.71 225.21 27.29 209.79 15.75 221.33 15.67 221.25 0.25 236.67 0.33 236.75 0.29 236.79 15.71 252.21 15.75 252.17 73.83 310.25 73.79 310.29 89.21 325.71 89.25 325.67 89.29 325.71 104.71 310.29 104.67 310.25 187.71 227.21 172.29 211.79"
     id="polygon8" />
  <path
     class="cls-1"
     d="M835.22,557l.21-.21-37-37,36.29-36.29-.5-.5.21-.21-88.5-88.5L635,505.37,523.43,393.79l-88.92,88.92,73.59,73.58-21.59,21.58-21.08-21.08,11.29-11.29L461.3,530.08l-26.79,26.63,89,89,.21-.21,61-61L569.3,569.08l-45.79,45.79-21.58-21.58,36.79-36.79.21-.21-36.5-36.5L524,498.21l221.5,221.5L835.22,630l.21-.21-36.5-36.5ZM746,425.21l58.09,58.08L783,504.37l-36.58-36.58L731,483.21l.09.08L672,542.37l-21.58-21.58Zm-.5,263.66L523.93,467.29l-15.42,15.42.09.08L487,504.37l-21.58-21.58,58.08-58.08L745,646.21l.21-.21,15.21-15.21,13.29-13.29L758.3,602.08,745,615.37l-57.58-57.58,59.08-59.08,58.09,58.08-21.09,21.08-21.58-21.58,11.79-11.79L758.3,529.08,731,556.21l73.59,73.58Z"
     transform="translate(-434.51 -393.79)"
     id="path10" />
</svg>
