<?xml version="1.0" encoding="utf-8"?>
<!-- Generator: Adobe Illustrator 23.0.1, SVG Export Plug-In . SVG Version: 6.00 Build 0)  -->
<svg version="1.1" id="Laag_2" xmlns="http://www.w3.org/2000/svg" xmlns:xlink="http://www.w3.org/1999/xlink" x="0px" y="0px"
	 viewBox="0 0 1920 1080" style="enable-background:new 0 0 1920 1080;" xml:space="preserve">
<style type="text/css">
	.st0{fill:#FD9862;}
</style>
<g>
	<g>
		<polygon class="st0" points="606.8,605.6 523.8,688.6 465.7,630.5 477.2,619 461.8,603.6 450.3,615.1 450.2,615 434.8,630.5 
			434.8,630.5 434.8,630.6 450.2,646 450.3,646 508.3,704 508.3,704.1 523.7,719.5 523.8,719.5 523.8,719.5 539.2,704.1 539.2,704 
			622.2,621 		"/>
	</g>
	<g>
		<path class="st0" d="M835.2,557l0.2-0.2l-37-37l36.3-36.3l-0.5-0.5l0.2-0.2l-88.5-88.5L635,505.4L523.4,393.8l-88.9,88.9
			l73.6,73.6l-21.6,21.6l-21.1-21.1l11.3-11.3l-15.4-15.4l-26.8,26.6l89,89l0.2-0.2l61-61l-15.4-15.4l-45.8,45.8l-21.6-21.6
			l36.8-36.8l0.2-0.2l-36.5-36.5l21.6-21.6l221.5,221.5l89.7-89.7l0.2-0.2l-36.5-36.5L835.2,557z M746,425.2l58.1,58.1L783,504.4
			l-36.6-36.6L731,483.2l0.1,0.1L672,542.4l-21.6-21.6L746,425.2z M745.5,688.9L523.9,467.3l-15.4,15.4l0.1,0.1L487,504.4
			l-21.6-21.6l58.1-58.1L745,646.2l0.2-0.2l15.2-15.2l13.3-13.3l-15.4-15.4L745,615.4l-57.6-57.6l59.1-59.1l58.1,58.1l-21.1,21.1
			l-21.6-21.6l11.8-11.8l-15.4-15.4L731,556.2l73.6,73.6L745.5,688.9z"/>
	</g>
</g>
</svg>
