<?xml version="1.0" encoding="utf-8"?>
<!-- Generator: Adobe Illustrator 23.0.1, SVG Export Plug-In . SVG Version: 6.00 Build 0)  -->
<svg version="1.1" id="Laag_2" xmlns="http://www.w3.org/2000/svg" xmlns:xlink="http://www.w3.org/1999/xlink" x="0px" y="0px"
	 viewBox="0 0 1920 1080" style="enable-background:new 0 0 1920 1080;" xml:space="preserve">
<style type="text/css">
	.st0{fill:#FD9862;}
</style>
<g>
	<g>
		<polygon class="st0" points="606.8,605.6 523.8,688.6 465.7,630.5 477.2,619 461.8,603.6 450.3,615.1 450.2,615 434.8,630.5 
			434.8,630.5 434.8,630.6 450.2,646 450.3,646 508.3,704 508.3,704.1 523.7,719.5 523.8,719.5 523.8,719.5 539.2,704.1 539.2,704 
			622.2,621 		"/>
	</g>
	<g>
		<path class="st0" d="M835.2,557l0.2-0.2l-37-37l36.3-36.3l-0.5-0.5l0.2-0.2l-88.5-88.5L635,505.4L523.4,393.8l-88.9,88.9
			l73.6,73.6l-21.6,21.6l-21.1-21.1l11.3-11.3l-15.4-15.4l-26.8,26.6l89,89l0.2-0.2l61-61l-15.4-15.4l-45.8,45.8l-21.6-21.6
			l36.8-36.8l0.2-0.2l-36.5-36.5l21.6-21.6l221.5,221.5l89.7-89.7l0.2-0.2l-36.5-36.5L835.2,557z M746,425.2l58.1,58.1L783,504.4
			l-36.6-36.6L731,483.2l0.1,0.1L672,542.4l-21.6-21.6L746,425.2z M745.5,688.9L523.9,467.3l-15.4,15.4l0.1,0.1L487,504.4
			l-21.6-21.6l58.1-58.1L745,646.2l0.2-0.2l15.2-15.2l13.3-13.3l-15.4-15.4L745,615.4l-57.6-57.6l59.1-59.1l58.1,58.1l-21.1,21.1
			l-21.6-21.6l11.8-11.8l-15.4-15.4L731,556.2l73.6,73.6L745.5,688.9z"/>
	</g>
</g>
<g>
	<path class="st0" d="M510.5,792.7v-3.9l18.8-22.4l-18.8-22.4v-3.9h11.8l14.6,17.3l14.5-17.3H563v3.9l-18.8,22.4l18.8,22.3v3.9
		h-11.8l-14.6-17.2l-14.5,17.2H510.5z"/>
	<path class="st0" d="M599.4,792.7l-30.4-52.6h13.1l22,38.2l22-38.2h13.1l-30.4,52.6H599.4z"/>
	<path class="st0" d="M643.8,792.7v-52.6h41.7c3,0,5.5,1.1,7.7,3.2c2.1,2.1,3.2,4.7,3.2,7.6v31c0,3-1.1,5.5-3.2,7.6
		c-2.1,2.1-4.7,3.2-7.7,3.2H643.8z M657.6,781.4h25h2.4v-2.4v-25v-2.4h-2.4h-25h-2.4v2.4v25v2.4H657.6z"/>
	<path class="st0" d="M704.7,792.7v-52.6H716v20.6h31v-20.6h11.3v52.6H747v-20.6h-31v20.6H704.7z"/>
</g>
</svg>
