<?xml version="1.0" encoding="utf-8"?>
<!-- Generator: Adobe Illustrator 23.0.1, SVG Export Plug-In . SVG Version: 6.00 Build 0)  -->
<svg version="1.1" id="Laag_1" xmlns="http://www.w3.org/2000/svg" xmlns:xlink="http://www.w3.org/1999/xlink" x="0px" y="0px"
	 viewBox="0 0 400.9 416.7" style="enable-background:new 0 0 400.9 416.7;" xml:space="preserve">
<style type="text/css">
	.st0{fill:#F7931E;}
	.st1{enable-background:new    ;}
</style>
<title>logo</title>
<polygon class="st0" points="172.3,211.8 89.3,294.8 31.2,236.8 42.7,225.2 27.3,209.8 15.8,221.3 15.7,221.3 0.3,236.7 0.3,236.8 
	0.3,236.8 15.7,252.2 15.8,252.2 73.8,310.3 73.8,310.3 89.2,325.7 89.3,325.7 89.3,325.7 104.7,310.3 104.7,310.3 187.7,227.2 "/>
<path class="st0" d="M400.7,163.2l0.2-0.2l-37-37l36.3-36.3l-0.5-0.5l0.2-0.2L311.4,0.5L200.5,111.6L88.9,0L0,88.9l73.6,73.6
	L52,184.1L30.9,163l11.3-11.3l-15.4-15.4L0,162.9l89,89l0.2-0.2l61-61l-15.4-15.4L89,221.1l-21.6-21.6l36.8-36.8l0.2-0.2L67.9,126
	l21.6-21.6L311,325.9l89.7-89.7l0.2-0.2l-36.5-36.5L400.7,163.2z M311.5,31.4l58.1,58.1l-21.1,21.1L311.9,74l-15.4,15.4l0.1,0.1
	l-59.1,59.1L215.9,127L311.5,31.4z M311,295.1L89.4,73.5L74,88.9l0.1,0.1l-21.6,21.6L30.9,89L89,30.9l221.5,221.5l0.2-0.2l15.2-15.2
	l13.3-13.3l-15.4-15.4l-13.3,13.3L252.9,164l59.1-59.1l58.1,58.1L349,184.1l-21.6-21.6l11.8-11.8l-15.4-15.4l-27.3,27.1l73.6,73.6
	L311,295.1z"/>
<g class="st1">
	<path class="st0" d="M76,399v-3.9l18.8-22.4L76,350.3v-3.9h11.8l14.6,17.3l14.5-17.3h11.8v3.9l-18.8,22.4l18.8,22.3v3.9h-11.8
		l-14.6-17.2L87.7,399H76z"/>
	<path class="st0" d="M164.9,399l-30.4-52.6h13.1l22,38.2l22-38.2h13.1L174.3,399H164.9z"/>
	<path class="st0" d="M209.3,399v-52.6H251c3,0,5.5,1.1,7.7,3.2s3.2,4.7,3.2,7.6v31c0,3-1.1,5.5-3.2,7.6S254,399,251,399H209.3z
		 M223.1,387.6h25h2.4v-2.4v-25v-2.4H248h-25h-2.4v2.4v25v2.4H223.1z"/>
	<path class="st0" d="M270.1,399v-52.6h11.3V367h31v-20.6h11.3V399h-11.3v-20.6h-31V399H270.1z"/>
</g>
</svg>
